<svg width="68" height="49" viewBox="0 0 68 49" fill="none" xmlns="http://www.w3.org/2000/svg">
<g clip-path="url(#clip0_733_203)">
<mask id="mask0_733_203" style="mask-type:luminance" maskUnits="userSpaceOnUse" x="0" y="0" width="68" height="49">
<path d="M68 0H0V49H68V0Z" fill="white"/>
</mask>
<g mask="url(#mask0_733_203)">
<path d="M1.91124 18.6704C2.12004 18.1567 2.49416 17.727 2.97457 17.4492C3.45499 17.1713 4.01436 17.0611 4.56445 17.1359C7.17412 17.1947 15.1337 17.1691 17.746 17.1487C18.1058 17.1784 18.4673 17.1168 18.797 16.9697C19.1266 16.8226 19.4137 16.5947 19.6316 16.3072C19.8495 16.0197 19.9912 15.6819 20.0434 15.3251C20.0957 14.9683 20.0569 14.6041 19.9305 14.2663C19.8053 13.8629 19.555 13.5095 19.2158 13.2572C18.8766 13.0049 18.466 12.8666 18.0431 12.8622C17.2287 12.8239 13.2053 12.8622 12.3935 12.8316C11.9398 12.8275 11.4995 12.6778 11.1375 12.4047C10.7755 12.1317 10.511 11.7496 10.3831 11.3149C10.2446 10.8939 10.2479 10.4392 10.3927 10.0203C10.5375 9.60137 10.8156 9.24133 11.1847 8.99524C11.6172 8.75448 12.0969 8.61049 12.5907 8.57324C13.2949 8.50163 17.2159 8.57324 17.9253 8.54767C18.208 8.55084 18.4885 8.4971 18.75 8.38964C19.0115 8.28219 19.2486 8.12323 19.4473 7.92224C19.6459 7.72126 19.8019 7.48237 19.9061 7.21984C20.0102 6.95731 20.0604 6.67651 20.0535 6.39421C20.0508 6.11159 19.9919 5.83231 19.8801 5.57265C19.7684 5.31299 19.606 5.07813 19.4024 4.88176C19.1989 4.68539 18.9582 4.53142 18.6945 4.42884C18.4308 4.32626 18.1493 4.2771 17.8663 4.28424C16.5295 4.26889 9.84526 4.28424 8.50841 4.28424C8.21101 4.31681 7.91008 4.28601 7.62548 4.19388C7.34088 4.10175 7.07909 3.95038 6.85738 3.74976C6.63568 3.54915 6.45911 3.30385 6.33933 3.03006C6.21955 2.75628 6.15929 2.46023 6.16252 2.16148C6.15728 1.86164 6.2154 1.56407 6.33309 1.28819C6.45079 1.0123 6.62541 0.764299 6.84557 0.560366C7.06573 0.356433 7.32648 0.201152 7.6108 0.104656C7.89511 0.00816043 8.19661 -0.0273808 8.49561 0.000351766C19.3441 0.000351766 32.0569 0.000351766 42.9105 0.0259272C44.7698 0.0259272 46.6316 0.112884 48.4858 0.227973C49.6694 0.238409 50.8074 0.684759 51.6817 1.48144C52.556 2.27813 53.1051 3.36907 53.2237 4.54511C53.2416 4.64485 53.28 4.74204 53.3313 4.93641C54.5503 4.93641 55.7796 4.93641 57.0089 4.93641C58.7779 4.82635 60.5312 5.32458 61.9772 6.34818C62.7531 6.90703 63.4227 7.59995 63.9543 8.39421C65.1273 10.2894 66.1466 12.2766 67.2273 14.2254C67.9511 15.5352 68.1741 17.063 67.8548 18.5246C67.4578 20.5937 67.1377 22.6755 66.7228 24.7395C66.4515 26.249 65.7386 27.6444 64.674 28.7497C64.2911 29.1579 63.8251 29.4793 63.3074 29.6924C62.7896 29.9055 62.2321 30.0053 61.6725 29.985C61.6161 29.5323 61.5931 29.1001 61.5111 28.6755C61.2342 27.1049 60.349 25.7063 59.0472 24.7825C57.7455 23.8587 56.1318 23.484 54.5554 23.7395C52.8384 23.9395 51.2238 24.6593 49.9283 25.8022C48.6328 26.9451 47.7183 28.4565 47.3078 30.1333C47.2847 30.2101 47.2617 30.2894 47.2284 30.3891H38.0599C38.0115 29.6862 37.9217 28.9868 37.791 28.2945C37.5755 27.4516 37.1851 26.6634 36.6453 25.9807C36.1054 25.298 35.4281 24.7361 34.657 24.3314C33.886 23.9266 33.0385 23.688 32.1693 23.631C31.3001 23.574 30.4286 23.6998 29.6112 24.0004C28.3414 24.3406 27.1736 24.9839 26.2081 25.875C25.2427 26.7661 24.5086 27.8781 24.0691 29.1154C24.012 29.392 23.8501 29.6358 23.6172 29.796C23.3843 29.9561 23.0984 30.0202 22.8193 29.9748C20.3736 29.9185 12.5753 29.9569 10.1372 29.9518C9.84011 29.979 9.54059 29.944 9.25777 29.8491C8.97495 29.7542 8.71505 29.6015 8.49466 29.4006C8.27428 29.1998 8.09824 28.9553 7.9778 28.6827C7.85735 28.4101 7.79514 28.1154 7.79514 27.8175C7.79514 27.5195 7.85735 27.2249 7.9778 26.9523C8.09824 26.6797 8.27428 26.4352 8.49466 26.2343C8.71505 26.0335 8.97495 25.8808 9.25777 25.7859C9.54059 25.691 9.84011 25.656 10.1372 25.6832C10.9311 25.6832 17.0699 25.6832 17.8638 25.6832C18.1465 25.689 18.4276 25.6386 18.6906 25.5349C18.9536 25.4312 19.1934 25.2763 19.3959 25.0793C19.5985 24.8822 19.7598 24.6469 19.8705 24.3871C19.9812 24.1272 20.039 23.848 20.0406 23.5656C20.0458 23.2777 19.9919 22.9918 19.8822 22.7255C19.7724 22.4592 19.6092 22.2182 19.4026 22.0174C19.1959 21.8166 18.9503 21.6602 18.6808 21.5578C18.4113 21.4555 18.1237 21.4094 17.8356 21.4223C15.2439 21.4223 7.30473 21.3789 4.71555 21.4351C4.14635 21.5152 3.5664 21.4122 3.05984 21.1408C2.55329 20.8695 2.14647 20.444 1.89844 19.9262L1.91124 18.6704ZM51.9765 16.6755C52.2505 16.6883 52.4733 16.7088 52.6961 16.7088H56.7707C58.694 16.7088 60.6122 16.7267 62.5407 16.7088C62.8088 16.7385 63.0799 16.6906 63.3216 16.5709C63.5633 16.4512 63.7655 16.2647 63.9042 16.0336C64.0429 15.8025 64.1121 15.5364 64.1038 15.2671C64.0954 14.9978 64.0098 14.7365 63.857 14.5144C63.0716 13.0617 62.2521 11.6338 61.3984 10.2305C61.0745 9.65105 60.6202 9.15466 60.0713 8.78051C59.5224 8.40635 58.894 8.16467 58.2356 8.07452C56.5453 7.87247 54.8294 7.89805 53.1008 7.81877C52.7217 10.829 52.3529 13.719 51.979 16.673" fill="url(#paint0_linear_733_203)"/>
<path d="M30.0449 35.5813C29.4308 35.599 28.8209 35.4754 28.2624 35.2201C27.7038 34.9648 27.2115 34.5847 26.8236 34.109C26.4356 33.6333 26.1624 33.0749 26.0251 32.477C25.8879 31.879 25.8901 31.2575 26.0318 30.6606C26.2775 29.4243 26.9344 28.3073 27.8958 27.4906C28.8571 26.674 30.0666 26.2058 31.3279 26.1619C31.9194 26.1366 32.5091 26.2424 33.0547 26.4718C33.6003 26.7013 34.0883 27.0485 34.4835 27.4887C34.8787 27.9288 35.1714 28.451 35.3405 29.0175C35.5095 29.5841 35.5509 30.181 35.4614 30.7654C35.2729 32.077 34.6251 33.2794 33.633 34.1591C32.6409 35.0389 31.3687 35.5392 30.0423 35.5711" fill="url(#paint1_linear_733_203)"/>
<path d="M53.7202 35.5811C53.1174 35.604 52.5171 35.4902 51.9647 35.248C51.4123 35.0059 50.922 34.6419 50.5308 34.1832C50.1396 33.7246 49.8576 33.1833 49.706 32.6002C49.5545 32.017 49.5374 31.4071 49.6559 30.8164C49.868 29.5638 50.5005 28.4205 51.4496 27.5746C52.3986 26.7287 53.6076 26.2304 54.8778 26.1616C55.4963 26.1218 56.1157 26.2253 56.6875 26.4639C57.2594 26.7025 57.7684 27.0699 58.1747 27.5373C58.581 28.0047 58.8737 28.5595 59.0299 29.1584C59.1861 29.7574 59.2017 30.3843 59.0753 30.9903C58.8424 32.2514 58.1839 33.3948 57.2096 34.23C56.2352 35.0653 55.0038 35.5421 53.7202 35.5811Z" fill="url(#paint2_linear_733_203)"/>
<path d="M6.86706 8.6095C7.14908 8.60642 7.42887 8.65962 7.69003 8.76598C7.95118 8.87234 8.18843 9.02971 8.38786 9.22887C8.58729 9.42803 8.74488 9.66496 8.85138 9.92576C8.95788 10.1866 9.01115 10.466 9.00807 10.7476C8.98887 11.3015 8.75503 11.8264 8.35585 12.2115C7.95668 12.5965 7.42335 12.8118 6.86834 12.8118C6.31333 12.8118 5.78001 12.5965 5.38083 12.2115C4.98165 11.8264 4.74781 11.3015 4.72862 10.7476C4.72588 10.4663 4.77931 10.1872 4.88578 9.92677C4.99225 9.66629 5.14962 9.42962 5.3487 9.23057C5.54779 9.03151 5.7846 8.87407 6.04529 8.76743C6.30599 8.6608 6.58535 8.60711 6.86706 8.6095Z" fill="url(#paint3_linear_733_203)"/>
</g>
<mask id="mask1_733_203" style="mask-type:luminance" maskUnits="userSpaceOnUse" x="8" y="39" width="14" height="8">
<path d="M18.2454 42.4319C18.4298 41.4857 18.6346 40.5394 18.86 39.6186C19.5617 39.6007 20.0714 39.7107 20.0714 40.6263C20.0714 41.5828 19.6309 42.4601 18.5937 42.4601C18.4773 42.4583 18.361 42.4506 18.2454 42.4371M18.6474 39.0381H17.5206C17.4942 39.0399 17.4676 39.0399 17.4412 39.0381H14.2067C14.081 39.0381 13.9605 39.0879 13.8716 39.1767C13.7828 39.2654 13.7329 39.3857 13.7329 39.5112C13.7329 39.6367 13.7828 39.7571 13.8716 39.8458C13.9605 39.9345 14.081 39.9844 14.2067 39.9844H15.8047C15.8798 39.9843 15.954 40.0012 16.0216 40.0338C16.0893 40.0664 16.1486 40.1139 16.1952 40.1728C16.2418 40.2316 16.2744 40.3002 16.2906 40.3735C16.3068 40.4467 16.3062 40.5227 16.2888 40.5956C16.2602 40.7086 16.1939 40.8085 16.1007 40.8788C16.0076 40.949 15.8932 40.9854 15.7766 40.9818L10.9106 40.9972C10.8448 40.9978 10.7799 41.0116 10.7195 41.0379C10.6592 41.0642 10.6049 41.1024 10.5597 41.1501C10.5145 41.1979 10.4794 41.2542 10.4566 41.3159C10.4337 41.3775 10.4235 41.443 10.4266 41.5087C10.4295 41.5726 10.4452 41.6354 10.4726 41.6932C10.5 41.7511 10.5387 41.803 10.5863 41.8458C10.634 41.8886 10.6897 41.9216 10.7502 41.9427C10.8107 41.9639 10.8748 41.9728 10.9388 41.969L13.8942 41.9537C13.9687 41.9534 14.0422 41.9698 14.1094 42.0019C14.1766 42.0339 14.2357 42.0807 14.2822 42.1387C14.3287 42.1968 14.3615 42.2646 14.3782 42.337C14.3948 42.4095 14.3948 42.4848 14.3782 42.5573C14.3515 42.6678 14.2886 42.7663 14.1996 42.8371C14.1105 42.908 14.0004 42.9472 13.8865 42.9486H8.63901C8.50317 42.9486 8.37289 43.0025 8.27683 43.0984C8.18078 43.1943 8.12681 43.3244 8.12681 43.4601V43.4933C8.1244 43.518 8.1244 43.5428 8.12681 43.5675C8.15411 43.6892 8.22297 43.7976 8.32157 43.8741C8.42017 43.9507 8.54236 43.9905 8.66718 43.9869H15.797C15.8647 43.9874 15.9315 44.0018 15.9933 44.0294C16.055 44.0569 16.1104 44.0969 16.1559 44.1469C16.2014 44.1969 16.236 44.2558 16.2575 44.3198C16.2791 44.3838 16.2871 44.4516 16.2811 44.5189L16.235 44.7056C16.1929 44.788 16.1292 44.8574 16.0507 44.9065C15.9723 44.9555 15.8819 44.9825 15.7894 44.9844H12.6598C12.53 44.9837 12.4052 45.034 12.3122 45.1244C12.2193 45.2149 12.1657 45.3382 12.163 45.4678C12.1629 45.5367 12.1768 45.6049 12.2038 45.6683C12.2308 45.7318 12.2704 45.7891 12.3202 45.8369C12.3699 45.8847 12.4288 45.9219 12.4933 45.9464C12.5579 45.9708 12.6267 45.982 12.6957 45.9793H16.7088C16.9776 45.981 17.2461 45.9981 17.5129 46.0304C17.6845 44.992 17.9124 43.923 18.1557 42.9614C18.4261 42.9932 18.6979 43.0103 18.9701 43.0125C20.4094 43.0125 21.5901 42.3296 21.5901 40.7849C21.5901 39.5522 20.8217 39.0534 19.6437 39.0534L18.6474 39.0381Z" fill="white"/>
</mask>
<g mask="url(#mask1_733_203)">
<path d="M21.5902 39.0459H8.12695V46.028H21.5902V39.0459Z" fill="#003468"/>
</g>
<mask id="mask2_733_203" style="mask-type:luminance" maskUnits="userSpaceOnUse" x="21" y="38" width="9" height="9">
<path d="M23.8243 38.9847C23.6737 38.9801 23.5238 38.963 23.3761 38.9336C22.9996 41.3351 22.111 45.2047 21.8574 46.0282C21.995 46.0004 22.1346 45.9833 22.2749 45.9771C22.4227 45.9837 22.5699 46.0008 22.7154 46.0282C22.8383 45.1331 23.3044 42.6395 23.7218 40.9515C24.8845 42.6523 26.0677 44.3812 27.087 46.1408C27.22 46.1113 27.3555 46.0942 27.4917 46.0896C27.6354 46.0942 27.7785 46.1113 27.9193 46.1408C28.1959 44.5423 28.4597 43.2098 28.6236 42.4886C29.2255 39.8722 29.2767 39.6753 29.4508 39.0487C29.3134 39.0826 29.1724 39.0998 29.0308 39.0998C28.8968 39.1011 28.7632 39.0839 28.6339 39.0487C28.4802 40.0257 27.8886 42.9668 27.5838 44.0691C26.982 43.2533 25.0869 40.4349 24.2699 38.9387C24.1224 38.9695 23.9724 38.9866 23.8217 38.9899" fill="white"/>
</mask>
<g mask="url(#mask2_733_203)">
<path d="M29.4489 38.9336H21.8555V46.1408H29.4489V38.9336Z" fill="#003468"/>
</g>
<mask id="mask3_733_203" style="mask-type:luminance" maskUnits="userSpaceOnUse" x="28" y="39" width="5" height="9">
<path d="M32.1525 39.1074C31.8727 39.1057 31.5931 39.0886 31.3151 39.0563C31.1205 40.3478 30.2548 44.5754 30.0346 45.5499C29.7785 46.6905 29.6376 47.0844 28.6875 47.156L28.749 47.624C29.3967 47.6656 30.0423 47.5162 30.6057 47.1944C31.4022 46.6982 31.5942 45.6803 31.8708 44.0307C32.0552 42.9412 32.1654 42.2992 32.5444 40.6931C32.5956 40.4604 32.8927 39.3095 32.9516 39.0537C32.6955 39.0742 32.4394 39.1049 32.1577 39.1049" fill="white"/>
</mask>
<g mask="url(#mask3_733_203)">
<path d="M32.9445 39.0459H28.6855V47.6162H32.9445V39.0459Z" fill="#003468"/>
</g>
<mask id="mask4_733_203" style="mask-type:luminance" maskUnits="userSpaceOnUse" x="35" y="39" width="7" height="8">
<path d="M39.5933 39.1078C39.012 39.1078 38.3282 39.1078 37.5445 39.0566C37.1552 41.412 36.631 43.7432 35.9746 46.0387C36.2482 46.0055 36.5236 45.9884 36.7993 45.9876C37.086 45.989 37.3724 46.0061 37.6572 46.0387C37.8236 44.9052 38.0484 43.7809 38.3307 42.6705C39.0838 42.6652 39.8364 42.7062 40.5844 42.7932C40.5908 42.5128 40.6526 42.2364 40.7663 41.9799C40.3463 42.0029 40.021 42.0208 39.5011 42.0208C38.9812 42.0208 38.7072 42.0208 38.4767 41.9901C38.5894 41.43 38.8429 40.3508 39.0171 39.7728C39.7871 39.7691 40.5566 39.8092 41.322 39.893C41.3111 39.6042 41.3737 39.3173 41.5038 39.0592C40.8226 39.0899 40.1491 39.1103 39.5984 39.1103" fill="white"/>
</mask>
<g mask="url(#mask4_733_203)">
<path d="M41.4966 39.0469H35.9648V46.029H41.4966V39.0469Z" fill="#003468"/>
</g>
<mask id="mask5_733_203" style="mask-type:luminance" maskUnits="userSpaceOnUse" x="40" y="38" width="7" height="9">
<path d="M42.9156 43.2916C43.3638 42.4885 43.8632 41.6931 44.3524 40.908C44.588 41.8057 44.7084 42.3965 44.8646 43.2916C44.6085 43.2916 44.2602 43.3146 43.9452 43.3146C43.6302 43.3146 43.2435 43.3146 42.9054 43.2916M44.9849 39.0179C44.8538 39.0145 44.7233 38.9973 44.5957 38.9668C44.1372 39.8415 44.0041 40.0768 42.5469 42.6318C41.8827 43.7827 41.1998 44.9156 40.498 46.0307C40.6673 46.0009 40.8385 45.9838 41.0103 45.9796C41.1576 45.9814 41.3044 45.9985 41.4482 46.0307C41.9604 44.9924 42.3138 44.353 42.5801 43.9054C42.9156 43.9054 43.1692 43.885 43.6993 43.885C44.2294 43.885 44.6059 43.885 44.9952 43.9054C45.0131 44.0282 45.1284 44.6164 45.1463 44.7622C45.2282 45.3018 45.2692 45.7187 45.3102 46.041C45.5814 46.0098 45.8541 45.9927 46.1272 45.9898C46.4626 45.9898 46.7905 46.0205 46.9928 46.041C46.309 43.5781 45.4331 39.2839 45.3845 38.977C45.2578 39.0081 45.1281 39.0252 44.9977 39.0282" fill="white"/>
</mask>
<g mask="url(#mask5_733_203)">
<path d="M46.9922 38.9648H40.5V46.0288H46.9922V38.9648Z" fill="#003468"/>
</g>
<mask id="mask6_733_203" style="mask-type:luminance" maskUnits="userSpaceOnUse" x="47" y="38" width="6" height="9">
<path d="M48.5332 41.0717C48.5629 41.4864 48.6935 41.8876 48.9135 42.2405C49.1335 42.5935 49.4363 42.8876 49.7958 43.0973C50.3874 43.5832 50.8765 44.0027 50.8765 44.5525C50.8679 44.6964 50.8304 44.837 50.7663 44.9661C50.7022 45.0952 50.6128 45.2101 50.5034 45.3041C50.3941 45.398 50.2669 45.4691 50.1295 45.5131C49.9921 45.5571 49.8473 45.5731 49.7036 45.5602C49.527 45.5691 49.3504 45.5431 49.184 45.4835C49.0176 45.424 48.8646 45.3321 48.7339 45.2133C48.6032 45.0944 48.4973 44.9508 48.4225 44.7909C48.3476 44.631 48.3051 44.4578 48.2976 44.2814H48.0825C47.992 44.7124 47.8447 45.1295 47.6445 45.5218C48.2733 45.9441 49.0178 46.1613 49.7753 46.1433C50.0843 46.1742 50.3964 46.1406 50.6917 46.0446C50.9871 45.9486 51.2592 45.7924 51.4908 45.5858C51.7225 45.3792 51.9086 45.1268 52.0374 44.8446C52.1662 44.5624 52.2348 44.2565 52.239 43.9464C52.2116 43.5555 52.091 43.1768 51.8875 42.8418C51.6839 42.5069 51.4032 42.2253 51.0686 42.0206C50.2824 41.3582 49.8752 41.0129 49.8752 40.486C49.8799 40.3552 49.9112 40.2268 49.9672 40.1085C50.0232 39.9902 50.1028 39.8845 50.201 39.7979C50.2993 39.7112 50.4141 39.6455 50.5386 39.6046C50.6631 39.5638 50.7946 39.5487 50.9252 39.5602C51.0802 39.5523 51.2352 39.5755 51.3811 39.6284C51.527 39.6812 51.6609 39.7628 51.7747 39.8681C51.8886 39.9735 51.9802 40.1005 52.0441 40.2418C52.108 40.3831 52.1429 40.5357 52.1468 40.6906H52.3722C52.4625 40.2682 52.6107 39.8603 52.8127 39.4784C52.2426 39.1002 51.571 38.904 50.8868 38.9157C50.5872 38.8846 50.2844 38.9172 49.9983 39.0114C49.7122 39.1056 49.4494 39.2593 49.227 39.4622C49.0047 39.6652 48.8279 39.9128 48.7083 40.1889C48.5887 40.465 48.5291 40.7633 48.5332 41.064" fill="white"/>
</mask>
<g mask="url(#mask6_733_203)">
<path d="M52.8146 38.9238H47.6465V46.1387H52.8146V38.9238Z" fill="#003468"/>
</g>
<mask id="mask7_733_203" style="mask-type:luminance" maskUnits="userSpaceOnUse" x="53" y="39" width="7" height="8">
<path d="M56.4454 39.1074C55.5465 39.1074 54.7449 39.0895 53.9279 39.0563C53.908 39.3282 53.8467 39.5956 53.7461 39.8491C54.4478 39.7877 54.8781 39.7877 55.6617 39.7877C55.5081 40.6624 55.3339 41.5396 55.1495 42.4041C54.8934 43.624 54.5682 44.8363 54.2532 46.0358C54.476 46.0179 54.7654 45.9847 55.0573 45.9847C55.3493 45.9847 55.6284 46.0153 55.923 46.0358C56.0971 44.8568 56.3634 43.6957 56.617 42.5371C56.8705 41.3785 57.0959 40.5422 57.2982 39.7877C57.7669 39.7877 58.3226 39.8082 58.9603 39.8696C58.974 39.5903 59.032 39.3149 59.1319 39.0537C58.4814 39.0946 57.1881 39.1049 56.4428 39.1049" fill="white"/>
</mask>
<g mask="url(#mask7_733_203)">
<path d="M59.1351 39.0459H53.7441V46.028H59.1351V39.0459Z" fill="#003468"/>
</g>
</g>
<defs>
<linearGradient id="paint0_linear_733_203" x1="1.89844" y1="20.9962" x2="80.7347" y2="9.68098" gradientUnits="userSpaceOnUse">
<stop stop-color="#E6D0A5"/>
<stop offset="1" stop-color="#BB934D"/>
</linearGradient>
<linearGradient id="paint1_linear_733_203" x1="25.9238" y1="32.6707" x2="37.5374" y2="31.8912" gradientUnits="userSpaceOnUse">
<stop stop-color="#E6D0A5"/>
<stop offset="1" stop-color="#BB934D"/>
</linearGradient>
<linearGradient id="paint2_linear_733_203" x1="49.5781" y1="32.6699" x2="61.1895" y2="31.8912" gradientUnits="userSpaceOnUse">
<stop stop-color="#E6D0A5"/>
<stop offset="1" stop-color="#BB934D"/>
</linearGradient>
<linearGradient id="paint3_linear_733_203" x1="4.72852" y1="11.5132" x2="9.91465" y2="11.1646" gradientUnits="userSpaceOnUse">
<stop stop-color="#E6D0A5"/>
<stop offset="1" stop-color="#BB934D"/>
</linearGradient>
<clipPath id="clip0_733_203">
<rect width="68" height="49" fill="white"/>
</clipPath>
</defs>
</svg>
