<?xml version="1.0" encoding="utf-8"?>
<!-- Generator: Adobe Illustrator 25.0.1, SVG Export Plug-In . SVG Version: 6.00 Build 0)  -->
<svg version="1.1" id="Layer_1" xmlns="http://www.w3.org/2000/svg" xmlns:xlink="http://www.w3.org/1999/xlink" x="0px" y="0px"
	 viewBox="0 0 29 27.9" style="enable-background:new 0 0 29 27.9;" xml:space="preserve">
<style type="text/css">
	.st0{enable-background:new    ;}
	.st1{fill:#666666;}
	.st2{fill:none;stroke:#666666;stroke-width:0.5;stroke-linecap:round;stroke-miterlimit:10;}
</style>
<g id="Layer_2_1_">
	<g id="Layer_1-2">
		<g class="st0">
			<path class="st1" d="M2.5,15.6c0,2.9,0.1,3.6,0.2,5.5C2.6,21,2.4,21,2.2,21C2,21,1.9,21,1.8,21c0.1-0.6,0.2-2.7,0.2-3.9
				c0-0.5,0-2.6,0-3v-1.4c0.1,0,0.1,0,0.2,0c0.1,0,0.1,0,0.3,0l0.4,0.5c0.3,0.4,0.6,0.7,1.4,1.5c2.4,2.5,2.7,2.8,4.2,4.4v-0.4
				c0-3.1,0-4.1-0.2-5.9c0.1,0,0.3,0.1,0.5,0.1s0.4,0,0.5-0.1c-0.2,1.7-0.2,3.5-0.2,5.2c0,0.9,0,2.4,0,3.2c-0.1,0-0.2,0-0.2,0
				c-0.1,0-0.1,0-0.2,0c-0.4-0.5-2.2-2.5-3-3.3c-0.2-0.2-0.4-0.4-0.6-0.6l-2.4-2.4V15.6z"/>
			<path class="st1" d="M15.2,16.2c0,0.1,0,0.2,0,0.4c0,0.1,0,0.2,0,0.4c-0.6-0.1-1.4-0.1-1.9-0.1c-0.3,0-0.7,0-1,0
				c0,0.5,0,1.1,0,1.6c0,0.6,0,1.5,0,1.9c0.8,0,1.7,0,3.2-0.1c0,0.1,0,0.2,0,0.4s0,0.3,0,0.4C15,21,14.5,21,13.9,21
				C13,21,12,21,11.1,21c0.1-0.9,0.1-1.7,0.1-4.3c0-1.2,0-2.8-0.1-4c0.8,0.1,1.7,0.1,2.5,0.1c0.6,0,1.2,0,1.8-0.1c0,0.1,0,0.3,0,0.4
				c0,0.2,0,0.3,0,0.4c-0.4-0.1-0.9-0.2-1.9-0.2c-0.4,0-0.7,0-1.2,0c0,0.5,0,0.7,0,1.4c0,0.8,0,0.9,0,1.6
				C13.3,16.3,14.3,16.4,15.2,16.2z"/>
			<path class="st1" d="M25.9,17c0.5-1.4,0.8-2.5,1.2-4.4c0.2,0.1,0.4,0.1,0.5,0.1c0.3,0,0.5,0,0.6-0.1c-0.5,1.2-1.3,3.2-2.3,6.2
				c-0.4,1.1-0.5,1.6-0.7,2.1C25.1,21,24.9,21,24.7,21c-0.1,0-0.3,0-0.5,0.1c-0.5-1.9-2-6-2.2-6.6c-0.3,0.8-1.7,4.8-2,5.9
				c-0.1,0.2-0.1,0.4-0.2,0.8C19.6,21,19.4,21,19.3,21c-0.1,0-0.3,0-0.5,0.1c-0.5-2.1-1.7-6-2.7-8.3c0.1,0,0.3,0.1,0.6,0.1
				c0.3,0,0.8-0.1,0.8-0.1c0.4,2,1.5,5.3,2,6.9l0.9-2.5c0.4-1.1,1.1-3.3,1.3-4.4c0.1,0,0.3,0.1,0.5,0.1c0.2,0,0.3,0,0.5-0.1
				c0.1,0.4,0.2,0.8,0.4,1.6c0.4,1.3,1.5,4.6,1.8,5.3L25.9,17z"/>
		</g>
		<polyline class="st2" points="26.8,10.4 23.6,6.7 7.5,6.7 4.1,10.5 		"/>
		<polyline class="st2" points="11.1,23 15.6,27.5 19.8,23.2 		"/>
		<line class="st2" x1="0.2" y1="4.3" x2="1.8" y2="4.3"/>
		<line class="st2" x1="4" y1="4.3" x2="5.7" y2="4.3"/>
		<line class="st2" x1="3" y1="1.6" x2="3" y2="3.1"/>
		<line class="st2" x1="3" y1="5.4" x2="3" y2="7"/>
		<line class="st2" x1="5.7" y1="2" x2="6.7" y2="2"/>
		<line class="st2" x1="8.1" y1="2" x2="9.1" y2="2"/>
		<line class="st2" x1="7.4" y1="0.2" x2="7.4" y2="1.2"/>
		<line class="st2" x1="7.4" y1="2.6" x2="7.4" y2="3.7"/>
		<line class="st2" x1="24" y1="4.1" x2="24.9" y2="4.1"/>
		<line class="st2" x1="26.3" y1="4.1" x2="27.4" y2="4.1"/>
		<line class="st2" x1="25.7" y1="2.4" x2="25.7" y2="3.3"/>
		<line class="st2" x1="25.7" y1="4.8" x2="25.7" y2="5.8"/>
	</g>
</g>
</svg>
