<svg width="45" height="48" viewBox="0 0 45 48" fill="none" xmlns="http://www.w3.org/2000/svg">
<g clip-path="url(#clip0_733_174)">
<mask id="mask0_733_174" style="mask-type:luminance" maskUnits="userSpaceOnUse" x="0" y="0" width="45" height="48">
<path d="M45 0H0V48H45V0Z" fill="white"/>
</mask>
<g mask="url(#mask0_733_174)">
<path d="M27.4661 38.7248C27.4661 37.655 27.4661 36.5827 27.4661 35.5129C27.4574 35.3964 27.473 35.2795 27.512 35.1693C27.551 35.0592 27.6124 34.9584 27.6925 34.8731C27.7726 34.7879 27.8696 34.7201 27.9773 34.6741C28.085 34.6282 28.2011 34.6049 28.3183 34.606C28.4353 34.6045 28.5514 34.6275 28.6591 34.6734C28.7667 34.7193 28.8635 34.7871 28.9433 34.8725C29.0231 34.9579 29.084 35.059 29.1223 35.1693C29.1605 35.2796 29.1752 35.3966 29.1654 35.5129C29.1654 37.5472 29.2333 39.5866 29.1327 41.6134C29.0315 43.3251 28.2818 44.9345 27.0354 46.1163C25.7889 47.2981 24.1386 47.9641 22.4183 47.9795C17.1895 48.0071 11.9633 48.0146 6.73454 47.9595C5.82364 47.9468 4.92514 47.7472 4.09502 47.3732C2.85472 46.8728 1.7984 46.0051 1.06877 44.8872C0.339137 43.7693 -0.028653 42.4552 0.015083 41.1224C0 29.703 0 18.2886 0 6.86172C0 6.75399 0 6.64626 0 6.54103C0.0745774 4.82641 0.796506 3.20321 2.02114 1.99664C3.24578 0.790072 4.88266 0.0892671 6.60382 0.0346386C11.918 -0.0154684 17.2373 -0.000436275 22.554 0.0296279C24.0902 0.0644693 25.5682 0.621986 26.7425 1.60958C27.9168 2.59718 28.7168 3.95542 29.0096 5.45872C29.1579 6.69721 29.2141 7.94493 29.178 9.19169C29.1931 9.8506 28.8713 10.1938 28.3409 10.2114C27.8105 10.2289 27.4786 9.8531 27.4686 9.16413C27.4585 8.47516 27.4686 7.80874 27.4686 7.12979C27.5069 6.40836 27.3921 5.68698 27.1317 5.01278C26.8712 4.33857 26.471 3.72672 25.9571 3.21718C25.4433 2.70763 24.8273 2.31187 24.1495 2.05574C23.4717 1.79961 22.7473 1.68887 22.0236 1.73076C17.0647 1.73076 12.1057 1.73076 7.14681 1.73076C6.4235 1.68963 5.69965 1.80141 5.02274 2.05876C4.34584 2.31611 3.7312 2.71322 3.21915 3.22401C2.7071 3.73481 2.30922 4.34775 2.05163 5.0226C1.79403 5.69746 1.68255 6.41898 1.72448 7.13981C1.72448 17.704 1.72448 28.2683 1.72448 38.8325C1.72448 39.0204 1.73957 39.2058 1.74962 39.3862H27.4661V38.7248ZM16.5787 44.3718C17.2172 44.3718 17.5842 44.0411 17.5842 43.5175C17.584 43.3961 17.558 43.2761 17.5079 43.1654C17.4578 43.0548 17.3848 42.9559 17.2936 42.8755C17.2024 42.795 17.0951 42.7347 16.9788 42.6985C16.8625 42.6624 16.7398 42.6512 16.6189 42.6657C15.2598 42.6506 13.9006 42.6506 12.5415 42.6657C12.4207 42.6516 12.2982 42.6636 12.1825 42.7008C12.0667 42.738 11.9603 42.7996 11.8705 42.8813C11.7806 42.963 11.7094 43.0629 11.6617 43.1744C11.614 43.2859 11.5908 43.4063 11.5938 43.5275C11.5938 44.0286 11.9482 44.3593 12.5566 44.3693C13.2353 44.3693 13.9165 44.3693 14.5928 44.3693C15.269 44.3693 15.915 44.3693 16.5762 44.3693" fill="#003468"/>
</g>
<mask id="mask1_733_174" style="mask-type:luminance" maskUnits="userSpaceOnUse" x="9" y="6" width="37" height="28">
<path d="M11.1423 6.84176C10.982 6.83238 10.8216 6.85614 10.671 6.91153C10.5204 6.96692 10.383 7.05275 10.2673 7.16362C10.1516 7.2745 10.0602 7.40802 9.99877 7.5558C9.93734 7.70358 9.90725 7.86243 9.91038 8.02236C9.91351 8.18229 9.94979 8.33984 10.017 8.48512C10.0841 8.63041 10.1807 8.76027 10.3006 8.86657C10.4206 8.97286 10.5613 9.05329 10.7139 9.10278C10.8665 9.15228 11.0278 9.16979 11.1875 9.15419C12.2131 9.17173 13.2388 9.19929 14.2594 9.15419C14.8501 9.12162 15.0487 9.36214 15.1795 9.88576C16.1397 13.7741 17.1252 17.6523 18.098 21.5432C18.4701 23.0188 18.8295 24.4995 19.2141 26.0528C18.8044 26.0528 18.4902 26.0528 18.1759 26.0528C17.6985 26.0611 17.2275 26.1644 16.7907 26.3567C16.3538 26.549 15.9599 26.8262 15.6321 27.1723C15.3043 27.5184 15.0492 27.9262 14.8817 28.3719C14.7142 28.8176 14.6378 29.2922 14.6569 29.7677C14.676 30.2432 14.7902 30.7102 14.9929 31.1411C15.1956 31.5721 15.4826 31.9583 15.8371 32.2771C16.1916 32.596 16.6065 32.841 17.0573 32.9979C17.5082 33.1547 17.9859 33.2202 18.4625 33.1905C25.5347 33.2022 32.6078 33.2022 39.6817 33.1905C39.876 33.2017 40.0709 33.1839 40.2599 33.1379C40.5135 33.0647 40.7344 32.9075 40.8864 32.6924C41.0383 32.4772 41.1122 32.2169 41.0958 31.9543C41.0794 31.6917 40.9737 31.4425 40.7962 31.2478C40.6186 31.0531 40.3798 30.9244 40.1191 30.8831C39.8769 30.8588 39.6331 30.8537 39.3901 30.8681H18.9049C18.6618 30.8785 18.4183 30.8727 18.1759 30.8505C17.8696 30.8166 17.5874 30.6688 17.3856 30.4366C17.1838 30.2044 17.0773 29.9049 17.0875 29.5979C17.0896 29.2905 17.2095 28.9957 17.4226 28.7735C17.6356 28.5514 17.9258 28.4188 18.2338 28.4028C18.4774 28.3906 18.7216 28.3906 18.9653 28.4028C25.3336 28.4028 31.702 28.4028 38.0704 28.4028C38.8726 28.4418 39.6645 28.21 40.3182 27.7449C40.9719 27.2798 41.4491 26.6086 41.6727 25.8398C42.731 22.7131 43.7843 19.5765 44.7948 16.4398C44.9849 15.8654 45.045 15.2562 44.9708 14.6559C44.8437 13.7639 44.3794 12.9539 43.6728 12.3918C42.9663 11.8297 42.0709 11.5579 41.1699 11.632C33.7558 11.632 26.3408 11.632 18.9251 11.632H18.0201C17.7033 10.3793 17.3891 9.15169 17.0925 7.92908C17.0526 7.62581 16.9028 7.34757 16.6712 7.14681C16.4397 6.94605 16.1425 6.83666 15.8356 6.83925C15.0261 6.83925 14.2167 6.82422 13.4122 6.82422C12.6581 6.82422 11.9039 6.82422 11.1498 6.84677" fill="white"/>
</mask>
<g mask="url(#mask1_733_174)">
<path d="M45.0529 6.81934H9.91211V33.1982H45.0529V6.81934Z" fill="url(#paint0_linear_733_174)"/>
</g>
<mask id="mask2_733_174" style="mask-type:luminance" maskUnits="userSpaceOnUse" x="19" y="33" width="5" height="5">
<path d="M19.5566 35.7011C19.5616 36.1036 19.6859 36.4956 19.914 36.8277C20.1421 37.1599 20.4637 37.4174 20.8383 37.5678C21.2129 37.7181 21.6237 37.7547 22.0191 37.6728C22.4145 37.5909 22.7768 37.3942 23.0602 37.1075C23.3437 36.8208 23.5357 36.457 23.6121 36.0617C23.6884 35.6665 23.6458 35.2576 23.4894 34.8865C23.333 34.5154 23.07 34.1987 22.7334 33.9763C22.3968 33.7539 22.0017 33.6358 21.5979 33.6367C21.0536 33.6427 20.5338 33.8632 20.1522 34.2501C19.7706 34.6369 19.5583 35.1587 19.5617 35.7011" fill="white"/>
</mask>
<g mask="url(#mask2_733_174)">
<path d="M23.6589 33.6367H19.5488V37.728H23.6589V33.6367Z" fill="#003468"/>
</g>
<mask id="mask3_733_174" style="mask-type:luminance" maskUnits="userSpaceOnUse" x="36" y="33" width="5" height="5">
<path d="M36.418 35.7011C36.4229 36.1036 36.5473 36.4956 36.7753 36.8277C37.0034 37.1599 37.325 37.4174 37.6996 37.5678C38.0742 37.7181 38.4851 37.7547 38.8805 37.6728C39.2759 37.5909 39.6381 37.3942 39.9216 37.1075C40.205 36.8208 40.397 36.457 40.4734 36.0617C40.5498 35.6665 40.5071 35.2576 40.3507 34.8865C40.1944 34.5154 39.9313 34.1987 39.5947 33.9763C39.2581 33.7539 38.863 33.6358 38.4592 33.6367C37.9153 33.6433 37.3962 33.8641 37.0152 34.2509C36.6341 34.6377 36.4222 35.1591 36.4255 35.7011" fill="white"/>
</mask>
<g mask="url(#mask3_733_174)">
<path d="M40.5138 33.6367H36.4062V37.728H40.5138V33.6367Z" fill="#003468"/>
</g>
</g>
<defs>
<linearGradient id="paint0_linear_733_174" x1="27.4825" y1="6.81934" x2="27.4825" y2="33.1982" gradientUnits="userSpaceOnUse">
<stop stop-color="#E6D0A5"/>
<stop offset="1" stop-color="#BB934D"/>
</linearGradient>
<clipPath id="clip0_733_174">
<rect width="45" height="48" fill="white"/>
</clipPath>
</defs>
</svg>
