<svg width="54" height="47" viewBox="0 0 54 47" fill="none" xmlns="http://www.w3.org/2000/svg">
<g clip-path="url(#clip0_733_257)">
<path d="M26.7617 24.8099L10.9668 16.5577L26.7617 8.28613L42.5853 16.5577L26.7617 24.8099Z" fill="url(#paint0_linear_733_257)"/>
<path d="M10.3809 17.4893L26.1877 25.7608V42.2725L10.3809 34.0009V17.4893Z" fill="url(#paint1_linear_733_257)"/>
<path d="M43.1803 17.4893V34.0009L27.3711 42.258V25.7463L43.1803 17.4893Z" fill="url(#paint2_linear_733_257)"/>
<mask id="mask0_733_257" style="mask-type:luminance" maskUnits="userSpaceOnUse" x="0" y="0" width="54" height="47">
<path d="M54 0H0V47H54V0Z" fill="white"/>
</mask>
<g mask="url(#mask0_733_257)">
<path d="M45.8858 47.0003C45.5654 46.9996 45.2578 46.8732 45.0279 46.6478C44.785 46.4085 44.6434 46.0834 44.6327 45.7408C44.622 45.3982 44.7431 45.0648 44.9705 44.8105C49.3532 39.9043 51.6873 33.4755 51.4842 26.8701C51.2811 20.2647 48.5564 13.9947 43.8807 9.37276C41.5948 7.1259 38.8836 5.36808 35.9095 4.20454C32.9353 3.041 29.7593 2.49565 26.5717 2.60114C23.384 2.70664 20.2502 3.4608 17.3578 4.81849C14.4654 6.17619 11.8739 8.10949 9.73846 10.5027C6.09697 14.5787 3.84727 19.7283 3.32065 25.1931C2.79403 30.6579 4.01831 36.1492 6.81321 40.8582C6.98784 41.152 7.04307 41.5026 6.96732 41.8366C6.89157 42.1706 6.69073 42.462 6.40693 42.6496C6.26699 42.7396 6.11056 42.8001 5.94698 42.8276C5.78339 42.8552 5.61599 42.8492 5.45475 42.81C5.29351 42.7708 5.14173 42.6992 5.00846 42.5995C4.87518 42.4997 4.76315 42.3739 4.67902 42.2295C1.59453 37.0319 0.243666 30.9709 0.825363 24.9393C1.40706 18.9077 3.89057 13.2242 7.91018 8.72572C10.2691 6.08845 13.1299 3.95843 16.3218 2.46282C19.5137 0.967223 22.9711 0.136715 26.4877 0.0208873C30.0043 -0.0949402 33.508 0.506288 36.7895 1.78867C40.071 3.07106 43.0631 5.00831 45.5871 7.48475C50.7461 12.5872 53.7515 19.5078 53.9743 26.798C54.197 34.0882 51.6198 41.1829 46.7821 46.5971C46.6668 46.7263 46.526 46.8296 46.3688 46.9003C46.2115 46.971 46.0413 47.0076 45.8691 47.0075" fill="#003468"/>
<path d="M9.9707 46.889C8.80548 43.3275 8.20773 39.6016 8.19978 35.8506L5.2817 40.7807L0 42.6325C3.53411 43.4833 6.90361 44.9217 9.9707 46.889Z" fill="#003468"/>
</g>
</g>
<defs>
<linearGradient id="paint0_linear_733_257" x1="26.776" y1="8.28613" x2="26.776" y2="24.8099" gradientUnits="userSpaceOnUse">
<stop stop-color="#E6D0A5"/>
<stop offset="1" stop-color="#BB934D"/>
</linearGradient>
<linearGradient id="paint1_linear_733_257" x1="18.2843" y1="17.4893" x2="18.2843" y2="42.2725" gradientUnits="userSpaceOnUse">
<stop stop-color="#E6D0A5"/>
<stop offset="1" stop-color="#BB934D"/>
</linearGradient>
<linearGradient id="paint2_linear_733_257" x1="35.2757" y1="17.4893" x2="35.2757" y2="42.258" gradientUnits="userSpaceOnUse">
<stop stop-color="#E6D0A5"/>
<stop offset="1" stop-color="#BB934D"/>
</linearGradient>
<clipPath id="clip0_733_257">
<rect width="54" height="47" fill="white"/>
</clipPath>
</defs>
</svg>
